<svg xmlns="http://www.w3.org/2000/svg" width="30" height="30" viewBox="0 0 30 30">
  <g id="alarm_ligbu" transform="translate(-28 -346.165)">
    <rect id="사각형_142" data-name="사각형 142" width="30" height="30" transform="translate(28 346.165)" fill="none"/>
    <path id="패스_22" data-name="패스 22" d="M2839.565,2817.223h-.534c-2.262-2.257-2.492-9.636-2.492-9.636-.628-6.293-3.192-8.375-7.612-9.744a2.88,2.88,0,0,0-2.922-2.477c-.04,0-.079,0-.117,0s-.077,0-.116,0a2.879,2.879,0,0,0-2.922,2.477c-4.421,1.369-6.984,3.451-7.613,9.744,0,0-.229,7.38-2.492,9.636h-.534a1.249,1.249,0,1,0,0,2.493h10.433a3.28,3.28,0,0,0,6.49,0h10.432a1.249,1.249,0,1,0,0-2.493Z" transform="translate(-2782.888 -2448.201)" fill="#9f72ae"/>
  </g>
</svg>
