<svg xmlns="http://www.w3.org/2000/svg" width="17" height="17" viewBox="0 0 17 17">
  <g id="alarm_pu" transform="translate(-28 -346)">
    <rect id="사각형_142" data-name="사각형 142" width="17" height="17" transform="translate(28 346)" fill="none"/>
    <path id="패스_22" data-name="패스 22" d="M2827.138,2807.609h-.3c-1.282-1.264-1.412-5.4-1.412-5.4-.356-3.525-1.809-4.691-4.313-5.458a1.626,1.626,0,0,0-1.656-1.388l-.066,0-.066,0a1.626,1.626,0,0,0-1.656,1.388c-2.5.767-3.958,1.933-4.314,5.458,0,0-.13,4.134-1.412,5.4h-.3a.7.7,0,1,0,0,1.4h5.912a1.862,1.862,0,0,0,3.677,0h5.912a.7.7,0,1,0,0-1.4Z" transform="translate(-2782.888 -2448.366)" fill="#5d1663"/>
  </g>
</svg>
