<svg xmlns="http://www.w3.org/2000/svg" width="20" height="20" viewBox="0 0 20 20">
  <g id="alarm_wh" transform="translate(-324 -10)">
    <rect id="사각형_5" data-name="사각형 5" width="20" height="20" transform="translate(324 10)" fill="none"/>
    <g id="그룹_238" data-name="그룹 238" transform="translate(298 -334)">
      <rect id="사각형_142" data-name="사각형 142" width="16" height="16" transform="translate(28 346)" fill="none"/>
      <path id="패스_22" data-name="패스 22" d="M2826.182,2806.8h-.285c-1.206-1.181-1.329-5.043-1.329-5.043-.335-3.293-1.7-4.383-4.06-5.1a1.527,1.527,0,0,0-1.559-1.3l-.062,0-.062,0a1.527,1.527,0,0,0-1.558,1.3c-2.357.717-3.725,1.806-4.06,5.1,0,0-.122,3.862-1.329,5.043h-.285a.654.654,0,1,0,0,1.3h5.564a1.754,1.754,0,0,0,3.461,0h5.564a.654.654,0,1,0,0-1.3Z" transform="translate(-2782.888 -2448.366)" fill="#f7f4f8"/>
    </g>
  </g>
</svg>
