<svg xmlns="http://www.w3.org/2000/svg" width="19" height="17" viewBox="0 0 19 17">
  <g id="alarm_off" transform="translate(-307 -442)">
    <path id="패스_23" data-name="패스 23" d="M2829.05,2809.05h-.338c-1.433-1.413-1.578-6.033-1.578-6.033-.4-3.94-2.021-5.243-4.821-6.1a1.817,1.817,0,0,0-1.851-1.551c-.025,0-.049,0-.074,0s-.049,0-.074,0a1.817,1.817,0,0,0-1.85,1.551c-2.8.857-4.423,2.16-4.822,6.1,0,0-.145,4.62-1.578,6.033h-.338a.782.782,0,1,0,0,1.561h6.607a2.081,2.081,0,0,0,4.11,0h6.607a.782.782,0,1,0,0-1.561Z" transform="translate(-2503.888 -2353.366)" fill="#f9f9f9"/>
  </g>
</svg>
