<svg xmlns="http://www.w3.org/2000/svg" width="17" height="17" viewBox="0 0 17 17">
  <g id="calendar_pu" transform="translate(-28 -122)">
    <rect id="사각형_137" data-name="사각형 137" width="17" height="17" transform="translate(28 122)" fill="none"/>
    <path id="패스_12" data-name="패스 12" d="M6486.905,4929.914h-.773v-.391a.421.421,0,1,0-.839,0v.391h-7.153v-.391a.431.431,0,0,0-.416-.461.436.436,0,0,0-.416.461v.391h-.729a1.936,1.936,0,0,0-1.837,2.016v9.133a1.931,1.931,0,0,0,1.837,2h10.325a1.932,1.932,0,0,0,1.837-2v-9.133A1.936,1.936,0,0,0,6486.905,4929.914Zm-8.809,8.586h.795a.433.433,0,0,1,.416.453.443.443,0,0,1-.416.469h-.795a.442.442,0,0,1-.416-.469A.433.433,0,0,1,6478.1,4938.5Zm-.416-2.016a.438.438,0,0,1,.416-.453h.795a.438.438,0,0,1,.416.453.443.443,0,0,1-.416.469h-.795A.442.442,0,0,1,6477.681,4936.484Zm3.806,2.016h.795a.433.433,0,0,1,.416.453.443.443,0,0,1-.416.469h-.795a.447.447,0,0,1-.416-.469A.438.438,0,0,1,6481.487,4938.5Zm-.416-2.016a.443.443,0,0,1,.416-.453h.795a.438.438,0,0,1,.416.453.443.443,0,0,1-.416.469h-.795A.447.447,0,0,1,6481.072,4936.484Zm4.44.469h-.794a.443.443,0,0,1-.416-.469.438.438,0,0,1,.416-.453h.794a.463.463,0,0,1,0,.922Zm2.4-3.953h-12.338v-1.07a1.063,1.063,0,0,1,1.007-1.1h.729v.352a.433.433,0,0,0,.416.453.429.429,0,0,0,.416-.453v-.352h7.153v.352a.421.421,0,1,0,.839,0v-.352h.773a1.062,1.062,0,0,1,1.006,1.1Z" transform="translate(-6445.243 -4805.063)" fill="#5d1663"/>
  </g>
</svg>
