<svg xmlns="http://www.w3.org/2000/svg" width="40" height="72" viewBox="0 0 40 72">
  <g id="cancel_whole" transform="translate(620 -143.97) rotate(90)">
    <g id="그룹_53" data-name="그룹 53" transform="translate(160.266 580)">
      <rect id="사각형_123" data-name="사각형 123" width="40" height="40" rx="20" transform="translate(-0.296)" fill="#5c1562"/>
    </g>
    <path id="패스_20" data-name="패스 20" d="M199.682,1760.064s1.4,13.878,15.766,13.878H187.97Z" transform="translate(0.522 -1161.533)" fill="#5c1562"/>
    <path id="패스_21" data-name="패스 21" d="M204.344,1759.908s-2.014,14.034-16.375,14.034h27.478Z" transform="translate(-44 -1161.533)" fill="#5c1562"/>
    <g id="close_pu">
      <path id="패스_63" data-name="패스 63" d="M6049.962,10615.074l6.92-6.932a1.15,1.15,0,0,0,0-1.624l-.107-.108a1.145,1.145,0,0,0-1.62,0l-6.937,6.949-6.935-6.948a1.145,1.145,0,0,0-1.621,0l-.108.107a1.151,1.151,0,0,0,0,1.624l6.921,6.932-6.921,6.935a1.147,1.147,0,0,0,0,1.621l.108.108a1.146,1.146,0,0,0,1.621,0l6.935-6.949,6.938,6.949a1.145,1.145,0,0,0,1.62,0l.107-.108a1.146,1.146,0,0,0,0-1.621Z" transform="translate(-10435.104 6648.219) rotate(-90)" fill="#e79fff"/>
    </g>
  </g>
</svg>
