<svg xmlns="http://www.w3.org/2000/svg" width="18" height="18" viewBox="0 0 18 18">
  <g id="close_pu" transform="translate(-170.97 -591)">
    <path id="패스_63" data-name="패스 63" d="M6049.962,10615.074l6.92-6.932a1.15,1.15,0,0,0,0-1.624l-.107-.108a1.145,1.145,0,0,0-1.62,0l-6.937,6.949-6.935-6.948a1.145,1.145,0,0,0-1.621,0l-.108.107a1.151,1.151,0,0,0,0,1.624l6.921,6.932-6.921,6.935a1.147,1.147,0,0,0,0,1.621l.108.108a1.146,1.146,0,0,0,1.621,0l6.935-6.949,6.938,6.949a1.145,1.145,0,0,0,1.62,0l.107-.108a1.146,1.146,0,0,0,0-1.621Z" transform="translate(-10435.104 6648.219) rotate(-90)" fill="#e79fff"/>
  </g>
</svg>
