<svg xmlns="http://www.w3.org/2000/svg" width="12" height="12" viewBox="0 0 12 12">
  <g id="commu_gr" transform="translate(-39 -212)">
    <rect id="사각형_188" data-name="사각형 188" width="12" height="12" transform="translate(39 212)" fill="none"/>
    <g id="그룹_87" data-name="그룹 87" transform="translate(-5926.031 -4841.568)">
      <rect id="사각형_189" data-name="사각형 189" width="0.766" height="1.109" transform="translate(5968.127 5057.852)" fill="#999"/>
      <rect id="사각형_190" data-name="사각형 190" width="0.766" height="1.109" transform="translate(5970.802 5057.852)" fill="#999"/>
      <rect id="사각형_191" data-name="사각형 191" width="0.766" height="1.109" transform="translate(5973.478 5057.852)" fill="#999"/>
      <path id="패스_47" data-name="패스 47" d="M5975.444,5054.068h-8.827a1.575,1.575,0,0,0-1.586,1.562v5.563a1.575,1.575,0,0,0,1.586,1.562h.492l-.27,1.683c0,.007,0,.015,0,.023s0,.039,0,.059a.433.433,0,0,0,0,.051c0,.018,0,.036.008.054a.419.419,0,0,0,.012.05c.006.017.012.034.019.05a.439.439,0,0,0,.021.048.431.431,0,0,0,.027.045c.011.016.021.031.033.046s.009.015.015.021l.019.016a.319.319,0,0,0,.051.044l.036.029a.539.539,0,0,0,.057.032l.044.022a.56.56,0,0,0,.058.017.464.464,0,0,0,.053.014l.013,0a.541.541,0,0,0,.088.007.443.443,0,0,0,.052,0l.045,0a.718.718,0,0,0,.069-.02.3.3,0,0,0,.037-.012.474.474,0,0,0,.078-.037l.024-.017a.7.7,0,0,0,.057-.041l0,0,2.5-2.177h5.185a1.576,1.576,0,0,0,1.587-1.562v-5.563A1.576,1.576,0,0,0,5975.444,5054.068Zm.478,7.125a.474.474,0,0,1-.478.469h-5.394c-.012,0-.022,0-.034,0l-.059.006a.348.348,0,0,0-.051.011.473.473,0,0,0-.053.017.324.324,0,0,0-.05.021l-.047.025a.541.541,0,0,0-.048.035c-.009.007-.019.012-.027.018l-1.507,1.311.131-.816a.547.547,0,0,0-.461-.625.672.672,0,0,0-.14,0c-.015,0-.029,0-.045,0h-1.044a.473.473,0,0,1-.477-.469v-5.563a.474.474,0,0,1,.477-.47h8.827a.474.474,0,0,1,.478.47Z" transform="translate(0 0)" fill="#999"/>
    </g>
  </g>
</svg>
