<svg xmlns="http://www.w3.org/2000/svg" width="18.302" height="18.301" viewBox="0 0 18.302 18.301">
  <g id="cutoff_pu" transform="translate(-8185.917 -7862.627)">
    <g id="그룹_212" data-name="그룹 212" transform="translate(8194.02 7866.931)">
      <path id="패스_58" data-name="패스 58" d="M8243.5,7896.595s-.162.825-.826.825-.826-.825-.826-.825l-.224-4.684a1.05,1.05,0,0,1,1.05-1.049h0a1.049,1.049,0,0,1,1.049,1.049Z" transform="translate(-8241.625 -7890.862)" fill="#5d1663" stroke="#5d1663" stroke-width="0.3"/>
    </g>
    <g id="그룹_213" data-name="그룹 213" transform="translate(8194.112 7874.642)">
      <path id="패스_59" data-name="패스 59" d="M8244.242,7946.721a.957.957,0,1,1-.957-.957A.957.957,0,0,1,8244.242,7946.721Z" transform="translate(-8242.329 -7945.764)" fill="#5d1663" stroke="#5d1663" stroke-width="0.3"/>
    </g>
    <g id="그룹_214" data-name="그룹 214" transform="translate(8186.068 7862.777)">
      <path id="패스_60" data-name="패스 60" d="M8195.067,7880.778a9,9,0,1,1,9-9A9.011,9.011,0,0,1,8195.067,7880.778Zm0-16.726a7.725,7.725,0,1,0,7.725,7.725A7.733,7.733,0,0,0,8195.067,7864.052Z" transform="translate(-8186.068 -7862.777)" fill="#5d1663" stroke="#5d1663" stroke-width="0.3"/>
    </g>
  </g>
</svg>
