<svg xmlns="http://www.w3.org/2000/svg" width="14" height="14" viewBox="0 0 14 14">
  <g id="delete_light_pu" transform="translate(-1257 -2440.999)">
    <path id="패스_71" data-name="패스 71" d="M6047.575,10613.076l5.384-5.393a.891.891,0,0,0,0-1.261l-.084-.086a.889.889,0,0,0-1.26,0l-5.4,5.405-5.4-5.4a.888.888,0,0,0-1.26,0l-.083.085a.891.891,0,0,0,0,1.261l5.383,5.393-5.383,5.392a.894.894,0,0,0,0,1.263l.083.085a.894.894,0,0,0,1.26,0l5.4-5.405,5.4,5.405a.893.893,0,0,0,1.26,0l.084-.085a.894.894,0,0,0,0-1.263Z" transform="translate(-4782.219 -8165.076)" fill="#9f72ae"/>
  </g>
</svg>
