<svg xmlns="http://www.w3.org/2000/svg" width="12" height="12" viewBox="0 0 12 12">
  <g id="heart_gr" transform="translate(-39 -212)">
    <g id="그룹_83" data-name="그룹 83" transform="translate(39 212.429)">
      <path id="패스_43" data-name="패스 43" d="M5787.975,4937.117a.376.376,0,0,0,.352.239h2.645l.039-.061a3.4,3.4,0,0,0,.27-.51l.078-.183h-2.774l-.4-1.024h0a.377.377,0,0,0-.7-.014.374.374,0,0,0-.006.289Z" transform="translate(-5782.187 -4931.856)" fill="#999"/>
      <path id="패스_44" data-name="패스 44" d="M5778.55,4938.326a.379.379,0,0,0,.208-.49l-.911-2.261h0a.377.377,0,0,0-.7.281l.911,2.262a.375.375,0,0,0,.35.235A.39.39,0,0,0,5778.55,4938.326Z" transform="translate(-5772.794 -4931.856)" fill="#999"/>
      <path id="패스_45" data-name="패스 45" d="M5739.392,4896.457a3.228,3.228,0,0,0-2.711-.571,2.152,2.152,0,0,1-4.1,0,3.23,3.23,0,0,0-2.711.572,3.162,3.162,0,0,0-1.239,2.586c0,2.479,1.3,4.468,4.212,6.453a6.085,6.085,0,0,1,1.372,1.156.444.444,0,0,0,.417.282.45.45,0,0,0,.415-.28,6.034,6.034,0,0,1,1.375-1.159c2.912-1.984,4.209-3.974,4.209-6.453A3.16,3.16,0,0,0,5739.392,4896.457Zm-7.642,4.861a.381.381,0,0,0,.348-.222l.222-.485,1.083,2.659a.378.378,0,0,0,.354.236.408.408,0,0,0,.142-.027.377.377,0,0,0,.212-.491l-1.417-3.477a.383.383,0,0,0-.7-.014l-.489,1.067h-1.774a5.4,5.4,0,0,1-.208-1.52,2.3,2.3,0,0,1,.891-1.888,2.406,2.406,0,0,1,1.425-.484,2.025,2.025,0,0,1,.515.065,2.581,2.581,0,0,1,1.843,1.834.447.447,0,0,0,.872,0,2.633,2.633,0,0,1,1.844-1.835,2.3,2.3,0,0,1,2.83,2.307c0,2.188-1.144,3.9-3.825,5.728h0a10.529,10.529,0,0,0-1.284,1.02,10.4,10.4,0,0,0-1.284-1.02,9.149,9.149,0,0,1-3.331-3.453Z" transform="translate(-5728.631 -4895.792)" fill="#999"/>
    </g>
    <rect id="사각형_188" data-name="사각형 188" width="12" height="12" transform="translate(39 212)" fill="none"/>
  </g>
</svg>
