<svg xmlns="http://www.w3.org/2000/svg" width="36" height="40" viewBox="0 0 36 40">
  <g id="heart_light_wh" transform="translate(-1230 -2190)">
    <rect id="사각형_300" data-name="사각형 300" width="36" height="40" transform="translate(1230 2190)" fill="#5d1663"/>
    <g id="그룹_292" data-name="그룹 292" transform="translate(-16 -130)">
      <g id="그룹_83" data-name="그룹 83" transform="translate(1254 2331)">
        <path id="패스_43" data-name="패스 43" d="M5788.409,4938.6a.691.691,0,0,0,.645.439h4.851l.071-.112a6.148,6.148,0,0,0,.494-.935l.143-.336h-5.088l-.732-1.878h0a.692.692,0,0,0-1.278-.025.684.684,0,0,0-.011.529Z" transform="translate(-5779.099 -4929.881)" fill="#f7f4f8"/>
        <path id="패스_44" data-name="패스 44" d="M5779.741,4940.817a.7.7,0,0,0,.383-.9l-1.671-4.147h0a.691.691,0,0,0-1.282.516l1.669,4.148a.691.691,0,0,0,.643.431A.712.712,0,0,0,5779.741,4940.817Z" transform="translate(-5770.025 -4929.996)" fill="#f7f4f8"/>
        <path id="패스_45" data-name="패스 45" d="M5746.567,4896.867a5.518,5.518,0,0,0-4.52-.923,3.623,3.623,0,0,1-6.832,0,5.519,5.519,0,0,0-4.52.924,5.054,5.054,0,0,0-2.065,4.178c0,4,2.165,7.218,7.02,10.423a9.988,9.988,0,0,1,2.287,1.868.74.74,0,0,0,.7.456.748.748,0,0,0,.691-.452,10.021,10.021,0,0,1,2.292-1.872c4.853-3.205,7.016-6.42,7.016-10.423A5.054,5.054,0,0,0,5746.567,4896.867Zm-12.736,7.853a.64.64,0,0,0,.579-.359l.369-.784,1.806,4.295a.628.628,0,0,0,.588.381.689.689,0,0,0,.236-.043.6.6,0,0,0,.354-.793l-2.361-5.617a.647.647,0,0,0-1.168-.023l-.815,1.724h-2.957a8.478,8.478,0,0,1-.348-2.456A3.675,3.675,0,0,1,5731.6,4898a4.085,4.085,0,0,1,2.375-.782,3.493,3.493,0,0,1,.856.1,4.22,4.22,0,0,1,3.073,2.962.75.75,0,0,0,1.453,0,4.3,4.3,0,0,1,3.072-2.964,3.952,3.952,0,0,1,3.232.678,3.676,3.676,0,0,1,1.483,3.049c0,3.534-1.906,6.3-6.375,9.252h0a17.483,17.483,0,0,0-2.139,1.647,17.307,17.307,0,0,0-2.141-1.647c-2.837-1.874-4.614-3.656-5.55-5.577Z" transform="translate(-5728.63 -4895.792)" fill="#f7f4f8"/>
      </g>
      <rect id="사각형_188" data-name="사각형 188" width="20" height="20" transform="translate(1254 2331)" fill="none"/>
      <rect id="사각형_245" data-name="사각형 245" width="36" height="36" transform="translate(1246 2322)" fill="none"/>
    </g>
  </g>
</svg>
