<svg xmlns="http://www.w3.org/2000/svg" width="18" height="18.001" viewBox="0 0 18 18.001">
  <g id="link_pu" transform="translate(-5654.159 -7868.717)">
    <g id="그룹_210" data-name="그룹 210" transform="translate(5654.159 7868.717)">
      <g id="그룹_205" data-name="그룹 205" transform="translate(0 8.374)">
        <g id="그룹_204" data-name="그룹 204">
          <path id="패스_55" data-name="패스 55" d="M5657.4,7931.241a3.24,3.24,0,0,1-2.291-5.531l3.148-3.148a3.24,3.24,0,0,1,4.581,4.583l-3.147,3.147A3.219,3.219,0,0,1,5657.4,7931.241Zm3.148-8.069a1.672,1.672,0,0,0-1.19.493l-3.148,3.147a1.682,1.682,0,0,0,2.379,2.378l3.147-3.147a1.682,1.682,0,0,0-1.188-2.871Z" transform="translate(-5654.159 -7921.614)" fill="#5d1663"/>
        </g>
      </g>
      <g id="그룹_207" data-name="그룹 207" transform="translate(8.374 0)">
        <g id="그룹_206" data-name="그룹 206">
          <path id="패스_56" data-name="패스 56" d="M5710.292,7878.344a3.239,3.239,0,0,1-2.291-5.531l3.147-3.147a3.24,3.24,0,0,1,4.582,4.582l-3.147,3.148A3.222,3.222,0,0,1,5710.292,7878.344Zm3.148-8.069a1.668,1.668,0,0,0-1.188.492l-3.148,3.148a1.682,1.682,0,0,0,2.378,2.378l3.148-3.148a1.681,1.681,0,0,0-1.189-2.871Z" transform="translate(-5707.052 -7868.717)" fill="#5d1663"/>
        </g>
      </g>
      <g id="그룹_209" data-name="그룹 209" transform="translate(6.841 6.645)">
        <g id="그룹_208" data-name="그룹 208">
          <path id="패스_57" data-name="패스 57" d="M5698.689,7916.151a.666.666,0,0,1-.469-1.136l3.5-3.5a.665.665,0,0,1,.94.94l-3.5,3.5A.666.666,0,0,1,5698.689,7916.151Z" transform="translate(-5698.024 -7911.323)" fill="#5d1663"/>
        </g>
      </g>
    </g>
  </g>
</svg>
