<svg xmlns="http://www.w3.org/2000/svg" width="12" height="12" viewBox="0 0 12 12">
  <g id="link_gr" transform="translate(-39 -212)">
    <rect id="사각형_188" data-name="사각형 188" width="12" height="12" transform="translate(39 212)" fill="none"/>
    <path id="패스_46" data-name="패스 46" d="M5835.933,5012.085a2.043,2.043,0,0,0-2.89,0l-1.985,1.985a2.038,2.038,0,0,0-.186,2.673l-.227.228a2.041,2.041,0,0,0-2.674.185l-1.985,1.986a2.043,2.043,0,0,0,2.89,2.889l1.984-1.985a2.041,2.041,0,0,0,.338-2.442l.306-.306a2.04,2.04,0,0,0,2.442-.337l1.985-1.985A2.045,2.045,0,0,0,5835.933,5012.085Zm-5.456,6.515a1.055,1.055,0,0,1-.312.75l-1.985,1.986a1.061,1.061,0,0,1-1.5-1.5l1.985-1.985a1.059,1.059,0,0,1,1.271-.173l-.221.222a.419.419,0,1,0,.593.593l.138-.138A1.021,1.021,0,0,1,5830.477,5018.6Zm4.76-4.321-1.985,1.985a1.056,1.056,0,0,1-.75.31,1.076,1.076,0,0,1-.245-.029l.258-.259a.419.419,0,0,0-.593-.593l-.343.343a1.06,1.06,0,0,1,.173-1.271l1.986-1.986a1.06,1.06,0,0,1,1.5,1.5Z" transform="translate(-5785.958 -4799.058)" fill="#999"/>
  </g>
</svg>
