<svg id="mail_icon" xmlns="http://www.w3.org/2000/svg" width="14" height="14" viewBox="0 0 14 14">
  <path id="패스_50" data-name="패스 50" d="M5461.253,4413.563a2.356,2.356,0,0,1-1.147-.288,1.61,1.61,0,0,1-.744-1.015h-.016a1.435,1.435,0,0,1-.434.606,2.725,2.725,0,0,1-.636.394,2.929,2.929,0,0,1-.689.212,3.7,3.7,0,0,1-.628.061,3.9,3.9,0,0,1-1.357-.22,2.828,2.828,0,0,1-1.016-.628,2.69,2.69,0,0,1-.635-.977,3.47,3.47,0,0,1-.217-1.25v-1.212a3.513,3.513,0,0,1,.217-1.265,2.833,2.833,0,0,1,.6-.97,2.665,2.665,0,0,1,.93-.621,3.153,3.153,0,0,1,1.194-.22,3.013,3.013,0,0,1,1.364.25,1.585,1.585,0,0,1,.651.538v-.667h1.783v4.651a1.764,1.764,0,0,0,.2.947.767.767,0,0,0,.7.311,1.193,1.193,0,0,0,.558-.129,1.036,1.036,0,0,0,.418-.439,2.611,2.611,0,0,0,.256-.811,7.585,7.585,0,0,0,.085-1.242v-.121a6.19,6.19,0,0,0-.38-2.25,4.406,4.406,0,0,0-1.1-1.651,4.733,4.733,0,0,0-1.767-1.023,7.544,7.544,0,0,0-2.38-.348,6.033,6.033,0,0,0-2.124.364,4.833,4.833,0,0,0-1.7,1.061,4.9,4.9,0,0,0-1.132,1.712,6.135,6.135,0,0,0-.411,2.318v.212a6.865,6.865,0,0,0,.4,2.462,4.8,4.8,0,0,0,1.14,1.765,4.71,4.71,0,0,0,1.775,1.068,7.146,7.146,0,0,0,2.326.356,10.951,10.951,0,0,0,2.24-.235,8.185,8.185,0,0,0,2.07-.72l.543,1.228a9.046,9.046,0,0,1-2.194.8,11.613,11.613,0,0,1-2.612.281,8.816,8.816,0,0,1-3.047-.493,6.244,6.244,0,0,1-2.263-1.4,5.95,5.95,0,0,1-1.4-2.2,8.251,8.251,0,0,1-.48-2.887v-.242a7.461,7.461,0,0,1,.48-2.712,6.133,6.133,0,0,1,1.38-2.144,6.373,6.373,0,0,1,2.163-1.409,7.6,7.6,0,0,1,2.845-.507,9.173,9.173,0,0,1,3.054.469,6.237,6.237,0,0,1,2.24,1.326,5.528,5.528,0,0,1,1.372,2.068,7.475,7.475,0,0,1,.465,2.7v.152a7.691,7.691,0,0,1-.132,1.394,4,4,0,0,1-.465,1.288,2.766,2.766,0,0,1-.907.947A2.609,2.609,0,0,1,5461.253,4413.563Zm-5.612-3.318a1.835,1.835,0,0,0,.349,1.2,1.313,1.313,0,0,0,1.078.424,1.582,1.582,0,0,0,1.078-.371,1.36,1.36,0,0,0,.426-1.083v-1.075a1.675,1.675,0,0,0-.356-1.137,1.45,1.45,0,0,0-1.147-.409,1.4,1.4,0,0,0-1.046.387,1.833,1.833,0,0,0-.38,1.31Z" transform="translate(-5450.199 -4402.852)" fill="#5d1663"/>
</svg>
