<svg xmlns="http://www.w3.org/2000/svg" width="15" height="17" viewBox="0 0 15 17">
  <g id="notice_pu" transform="translate(-552.137 -12087.43)">
    <g id="그룹_216" data-name="그룹 216" transform="translate(552.137 12102.843)">
      <path id="패스_61" data-name="패스 61" d="M566.344,12188.3H552.93a.793.793,0,0,1,0-1.587h13.413a.793.793,0,0,1,0,1.587Z" transform="translate(-552.137 -12186.713)" fill="#5d1663"/>
    </g>
    <g id="그룹_217" data-name="그룹 217" transform="translate(552.137 12087.43)">
      <path id="패스_62" data-name="패스 62" d="M566.344,12101.8H552.93a.785.785,0,0,1-.793-.776v-6.269a7.5,7.5,0,0,1,15,0v6.269A.785.785,0,0,1,566.344,12101.8Zm-12.62-1.55h11.827v-5.5a5.915,5.915,0,0,0-11.827,0Z" transform="translate(-552.137 -12087.43)" fill="#5d1663"/>
    </g>
  </g>
</svg>
