<svg xmlns="http://www.w3.org/2000/svg" width="18" height="18" viewBox="0 0 18 18">
  <g id="pic_on" transform="translate(-16 -187)">
    <g id="그룹_81" data-name="그룹 81" transform="translate(16 188.5)">
      <path id="패스_40" data-name="패스 40" d="M4063.516,2247.691l-11.77-3.183a.863.863,0,0,0-1.059.608l-.9,3.332h10.37a1.457,1.457,0,0,1,1.423,1.547v6.846a.863.863,0,0,0,.511-.574l2.033-7.516A.864.864,0,0,0,4063.516,2247.691Z" transform="translate(-4046.153 -2244.478)" fill="#5d1663"/>
      <path id="패스_41" data-name="패스 41" d="M4035.292,2279.808H4023.1a1.319,1.319,0,0,0-1.317,1.317v7.787a1.319,1.319,0,0,0,1.317,1.317h12.192a1.318,1.318,0,0,0,1.317-1.317v-7.787A1.318,1.318,0,0,0,4035.292,2279.808Zm.409,5.8c-.031-.044-.064-.088-.1-.135-.456-.576-1.358-1.9-1.988-1.839a2.446,2.446,0,0,0-1.3.757c-.654.623-1.378,1.228-1.538,1.361a.041.041,0,0,1-.059-.006c-.068-.085-.267-.33-.611-.734-1.2-1.409-2.645-2.554-3.661-2.554-1.7,0-3.074,2.235-3.75,3.583v-4.922a.409.409,0,0,1,.409-.409h12.192a.409.409,0,0,1,.409.409Z" transform="translate(-4021.782 -2275.224)" fill="#5d1663"/>
      <path id="패스_42" data-name="패스 42" d="M4088.786,2298.07a.679.679,0,1,0,.928.249A.679.679,0,0,0,4088.786,2298.07Z" transform="translate(-4079.796 -2291.037)" fill="#5d1663"/>
    </g>
    <rect id="사각형_187" data-name="사각형 187" width="18" height="18" transform="translate(16 187)" fill="none"/>
  </g>
</svg>
