<svg xmlns="http://www.w3.org/2000/svg" width="17" height="17" viewBox="0 0 17 17">
  <g id="pw_pu" transform="translate(-28 -196)">
    <rect id="사각형_268" data-name="사각형 268" width="17" height="17" transform="translate(28 196)" fill="none"/>
    <g id="그룹_253" data-name="그룹 253" transform="translate(-880.921 -6489.147)">
      <path id="패스_69" data-name="패스 69" d="M949.724,6771.058l.014.016,3.122-3.121-.792-.792-2.335,2.333-1.223-1.221-.792.791,2,2Z" transform="translate(-32.867 -72.356)" fill="#5d1663"/>
      <path id="패스_70" data-name="패스 70" d="M923.361,6691.943h-.919v-1.8a5.02,5.02,0,0,0-10.04,0v1.8h-1.98v10.2h14v-10.2Zm-9.29-1.8a3.351,3.351,0,0,1,6.7,0v1.8h-6.7Zm8.818,10.482H911.953v-7.156h10.936Z" fill="#5d1663"/>
    </g>
  </g>
</svg>
