<svg xmlns="http://www.w3.org/2000/svg" width="36" height="36" viewBox="0 0 36 36">
  <g id="tab_off2" transform="translate(36 -816)">
    <rect id="사각형_71" data-name="사각형 71" width="36" height="36" transform="translate(-36 816)" fill="none"/>
    <g id="그룹_28" data-name="그룹 28" transform="translate(-6320.475 -4014.203)">
      <path id="패스_8" data-name="패스 8" d="M6316.017,4842.678l-13.177-6.392a.841.841,0,0,0-.73,0l-13.177,6.392a.8.8,0,0,0-.373,1.078.829.829,0,0,0,1.1.364l1.25-.606V4858.4a.813.813,0,0,0,.822.8h19.839a.8.8,0,1,0,0-1.609h-19.018v-14.57a.763.763,0,0,0-.055-.281l9.609-4.661a.844.844,0,0,1,.73,0l9.609,4.661a.773.773,0,0,0-.054.281V4858.4a.822.822,0,0,0,1.644,0v-14.885l1.249.606a.829.829,0,0,0,1.1-.364A.8.8,0,0,0,6316.017,4842.678Z" transform="translate(0 0)" fill="#9f72ae"/>
      <path id="패스_9" data-name="패스 9" d="M6321.559,4864.345a4.437,4.437,0,1,0,4.437,4.436A4.437,4.437,0,0,0,6321.559,4864.345Zm1.956,4.636h-1.956a.2.2,0,0,1-.2-.2v-2.669a.2.2,0,1,1,.4,0v2.471h1.757a.2.2,0,0,1,0,.4Z" transform="translate(-19.084 -19.02)" fill="#9f72ae"/>
    </g>
  </g>
</svg>
