<svg xmlns="http://www.w3.org/2000/svg" width="36" height="36" viewBox="0 0 36 36">
  <g id="tab_on1" transform="translate(0 -852)">
    <path id="패스_12" data-name="패스 12" d="M6497.33,4930.467h-1.442v-.657a.774.774,0,0,0-1.547,0v.657h-13.287v-.657a.774.774,0,0,0-1.547,0v.657h-1.355a3.361,3.361,0,0,0-3.411,3.3v14.991a3.362,3.362,0,0,0,3.411,3.3h19.178a3.361,3.361,0,0,0,3.411-3.3v-14.991A3.361,3.361,0,0,0,6497.33,4930.467Zm-16.353,14.1h1.472a.748.748,0,1,1,0,1.5h-1.472a.748.748,0,1,1,0-1.5Zm-.774-3.3a.761.761,0,0,1,.774-.748h1.472a.748.748,0,1,1,0,1.5h-1.472A.761.761,0,0,1,6480.2,4941.264Zm7.073,3.3h1.471a.748.748,0,1,1,0,1.5h-1.471a.748.748,0,1,1,0-1.5Zm-.774-3.3a.761.761,0,0,1,.774-.748h1.471a.748.748,0,1,1,0,1.5h-1.471A.761.761,0,0,1,6486.5,4941.264Zm8.234.748h-1.472a.748.748,0,1,1,0-1.5h1.472a.748.748,0,1,1,0,1.5Zm4.456-6.478h-22.9v-1.767a1.837,1.837,0,0,1,1.864-1.8h1.355v.581a.774.774,0,0,0,1.547,0v-.581h13.287v.581a.774.774,0,0,0,1.547,0v-.581h1.442a1.836,1.836,0,0,1,1.863,1.8Z" transform="translate(-6469.74 -4070.061)" fill="#f7f4f8"/>
    <rect id="사각형_71" data-name="사각형 71" width="36" height="36" transform="translate(0 852)" fill="none"/>
  </g>
</svg>
