<svg xmlns="http://www.w3.org/2000/svg" width="36" height="36" viewBox="0 0 36 36">
  <g id="tab_on3" transform="translate(-36 -852)">
    <rect id="사각형_71" data-name="사각형 71" width="36" height="36" transform="translate(36 852)" fill="none"/>
    <path id="패스_17" data-name="패스 17" d="M6477.8,5061.743h-19.263a3.42,3.42,0,0,0-3.368,3.47v16.061a3.419,3.419,0,0,0,3.368,3.469H6477.8a3.42,3.42,0,0,0,3.369-3.469v-16.061A3.421,3.421,0,0,0,6477.8,5061.743Zm-16.177,13.288a1.7,1.7,0,1,1,1.65-1.7A1.675,1.675,0,0,1,6461.622,5075.03Zm6.545,0a1.7,1.7,0,1,1,1.649-1.7A1.675,1.675,0,0,1,6468.167,5075.03Zm6.545,0a1.7,1.7,0,1,1,1.65-1.7A1.676,1.676,0,0,1,6474.713,5075.03Z" transform="translate(-6414.168 -4202.743)" fill="#f7f4f8"/>
  </g>
</svg>
