<svg xmlns="http://www.w3.org/2000/svg" width="36" height="36" viewBox="0 0 36 36">
  <g id="tab_on2_bu" transform="translate(36 -852)">
    <g id="그룹_29" data-name="그룹 29" transform="translate(-6390.377 -4070.873)">
      <path id="패스_10" data-name="패스 10" d="M6402.71,4965.873h-1.928v-2.709a.218.218,0,1,0-.436,0v2.928a.217.217,0,0,0,.218.218h2.146a.218.218,0,0,0,0-.436Z" transform="translate(-28.255 -22.57)" fill="#5d1663"/>
      <path id="패스_11" data-name="패스 11" d="M6385.921,4936.348l-13.178-6.391a.835.835,0,0,0-.729,0l-13.178,6.391a.8.8,0,0,0-.372,1.078.83.83,0,0,0,1.1.364l1.25-.606v14.885a.813.813,0,0,0,.821.8h19.84a.822.822,0,0,1,1.644,0,.814.814,0,0,0,.822-.8v-14.885l1.25.606a.83.83,0,0,0,1.1-.364A.8.8,0,0,0,6385.921,4936.348Zm-13.543,11.556a4.489,4.489,0,1,1,4.584-4.488A4.537,4.537,0,0,1,6372.378,4947.9Z" transform="translate(0)" fill="#5d1663"/>
    </g>
    <rect id="사각형_71" data-name="사각형 71" width="36" height="36" transform="translate(-36 852)" fill="none"/>
  </g>
</svg>
