<svg xmlns="http://www.w3.org/2000/svg" width="36" height="36" viewBox="0 0 36 36">
  <g id="tab_off1" transform="translate(0 -816)">
    <rect id="사각형_71" data-name="사각형 71" width="36" height="36" transform="translate(0 816)" fill="none"/>
    <g id="그룹_24" data-name="그룹 24" transform="translate(5 823)">
      <path id="패스_2" data-name="패스 2" d="M6197.352,4835.965h-1.441v-.658a.774.774,0,0,0-1.547,0v.658h-13.287v-.658a.774.774,0,0,0-1.547,0v.658h-1.355a3.361,3.361,0,0,0-3.411,3.3v14.991a3.362,3.362,0,0,0,3.411,3.3h19.178a3.363,3.363,0,0,0,3.411-3.3v-14.991A3.362,3.362,0,0,0,6197.352,4835.965Zm-19.178,1.5h1.355v.582a.774.774,0,0,0,1.547,0v-.582h13.287v.582a.774.774,0,0,0,1.547,0v-.582h1.441a1.837,1.837,0,0,1,1.863,1.8v1.766h-22.9v-1.766A1.836,1.836,0,0,1,6178.174,4837.461Zm19.178,18.6h-19.178a1.837,1.837,0,0,1-1.863-1.806v-11.728h22.9v11.728A1.837,1.837,0,0,1,6197.352,4856.063Z" transform="translate(-6174.763 -4834.56)" fill="#9f72ae"/>
      <path id="패스_3" data-name="패스 3" d="M6194.615,4872.826h-1.444a.759.759,0,0,0,0,1.519h1.444a.759.759,0,0,0,0-1.519Z" transform="translate(-6186.936 -4861.383)" fill="#9f72ae"/>
      <path id="패스_4" data-name="패스 4" d="M6214.963,4872.826h-1.444a.759.759,0,1,0,0,1.519h1.444a.759.759,0,0,0,0-1.519Z" transform="translate(-6200.97 -4861.383)" fill="#9f72ae"/>
      <path id="패스_5" data-name="패스 5" d="M6194.615,4886.366h-1.444a.759.759,0,0,0,0,1.518h1.444a.759.759,0,1,0,0-1.518Z" transform="translate(-6186.936 -4870.875)" fill="#9f72ae"/>
      <path id="패스_6" data-name="패스 6" d="M6214.963,4886.366h-1.444a.759.759,0,1,0,0,1.518h1.444a.759.759,0,1,0,0-1.518Z" transform="translate(-6200.97 -4870.875)" fill="#9f72ae"/>
      <path id="패스_7" data-name="패스 7" d="M6234.313,4872.826h-1.444a.759.759,0,0,0,0,1.519h1.444a.759.759,0,0,0,0-1.519Z" transform="translate(-6214.315 -4861.383)" fill="#9f72ae"/>
    </g>
  </g>
</svg>
