<svg xmlns="http://www.w3.org/2000/svg" width="36" height="36" viewBox="0 0 36 36">
  <g id="tab_off3" transform="translate(-36 -816)">
    <rect id="사각형_71" data-name="사각형 71" width="36" height="36" transform="translate(36 816)" fill="none"/>
    <g id="그룹_34" data-name="그룹 34" transform="translate(-6307.915 -4238.743)">
      <path id="패스_13" data-name="패스 13" d="M6371.547,5061.743h-19.264a3.42,3.42,0,0,0-3.368,3.47v16.061a3.42,3.42,0,0,0,3.368,3.47h19.264a3.42,3.42,0,0,0,3.368-3.47v-16.061A3.42,3.42,0,0,0,6371.547,5061.743Zm1.82,19.53a1.851,1.851,0,0,1-1.82,1.875h-19.264a1.851,1.851,0,0,1-1.821-1.875v-16.061a1.851,1.851,0,0,1,1.821-1.876h19.264a1.851,1.851,0,0,1,1.82,1.876Z" transform="translate(0)" fill="#9f72ae"/>
      <path id="패스_14" data-name="패스 14" d="M6387.4,5092.762a1.812,1.812,0,1,0,1.812,1.812A1.812,1.812,0,0,0,6387.4,5092.762Z" transform="translate(-25.481 -21.244)" fill="#9f72ae"/>
      <path id="패스_15" data-name="패스 15" d="M6366.251,5092.762a1.812,1.812,0,1,0,1.812,1.812A1.812,1.812,0,0,0,6366.251,5092.762Z" transform="translate(-10.787 -21.244)" fill="#9f72ae"/>
      <path id="패스_16" data-name="패스 16" d="M6408.542,5092.762a1.812,1.812,0,1,0,1.812,1.812A1.812,1.812,0,0,0,6408.542,5092.762Z" transform="translate(-40.175 -21.244)" fill="#9f72ae"/>
    </g>
  </g>
</svg>
